<mxfile host="app.diagrams.net" modified="2023-05-09T10:39:21.244Z" agent="Mozilla/5.0 (Windows NT 10.0; Win64; x64) AppleWebKit/537.36 (KHTML, like Gecko) Chrome/112.0.0.0 Safari/537.36 Edg/112.0.1722.68" version="21.2.9" etag="7Fb5b03pGBiheDpt1Ej8" type="github">
  <diagram name="第 1 页" id="u69A9PxZdoqH9lMqocLD">
    <mxGraphModel>
      <root>
        <mxCell id="0" />
        <mxCell id="1" parent="0" />
      </root>
    </mxGraphModel>
  </diagram>
</mxfile>
